<svg width="1024" height="1024" xmlns="http://www.w3.org/2000/svg" fill="none"><path stroke="null" fill="#ffaa56" d="M354.548 537.208h629.459c5.023 2.197 16.577 10.55 22.606 26.374 7.536 19.782 28.843 309.902-331.252 250.56-283.332 0-349.446-8.793-346.934-13.189 52.31-13.186 58.856-65.935 65.403-105.498 6.548-39.561-39.282-158.247-39.282-158.247z"/><path stroke="null" fill="#253D4E" d="M827.48 265.975c-8.266 0-14.962 6.747-14.962 15.068v2.407c0 8.323 6.696 15.068 14.961 15.068s14.96-6.745 14.96-15.068v-2.407c0-8.324-6.695-15.068-14.96-15.068zM866.338 333.197c-8.265 0-14.961 6.744-14.961 15.068v2.406c0 8.322 6.696 15.067 14.961 15.067s14.961-6.744 14.961-15.067v-2.406c0-8.324-6.696-15.068-14.961-15.068zM538.745 319.047l-1.107-2.136c-3.824-7.378-12.867-10.237-20.186-6.384-7.325 3.851-10.164 12.953-6.34 20.33l1.108 2.135a14.942 14.942 0 0 0 13.273 8.1c2.333 0 4.7-.55 6.912-1.715 7.325-3.851 10.164-12.952 6.34-20.33zM604.086 360.52l-1.107-2.136c-3.824-7.378-12.865-10.237-20.187-6.385-7.325 3.851-10.163 12.953-6.34 20.33l1.107 2.136a14.944 14.944 0 0 0 13.275 8.1c2.333 0 4.7-.551 6.912-1.716 7.325-3.85 10.164-12.953 6.34-20.33zM510.992 660.296l-44.501-44.82c-5.846-5.882-15.319-5.885-21.158 0-5.845 5.884-5.845 15.424-.002 21.307l44.5 44.819a14.855 14.855 0 0 0 10.58 4.414c3.828 0 7.659-1.47 10.578-4.412 5.846-5.884 5.846-15.424.003-21.308zM643.218 632.217c-4.79-6.779-14.128-8.366-20.864-3.536l-155.31 111.355c-6.731 4.826-8.303 14.234-3.512 21.012a14.904 14.904 0 0 0 12.201 6.331c3 0 6.032-.908 8.664-2.795l155.31-111.355c6.73-4.826 8.302-14.234 3.511-21.012zM698.124 654.945c-4.787-6.778-14.13-8.365-20.864-3.536l-59.615 42.744c-6.734 4.83-8.304 14.235-3.512 21.014a14.9 14.9 0 0 0 12.2 6.33c3 0 6.03-.908 8.665-2.797l59.615-42.743c6.733-4.826 8.304-14.234 3.511-21.012z"/><path stroke="null" fill="#253D4E" d="M1019.537 586.578c-4.836-6.75-14.183-8.273-20.888-3.41l-4.984 3.619c.02-1.292.05-2.582.05-3.878 0-14.374-5.553-27.9-15.667-38.113-10.112-10.157-23.543-15.75-37.815-15.75h-4.429c16.42-31.95 24.756-70.422 24.756-114.835 0-87.102-32.42-182.309-82.592-242.55-5.312-6.375-14.749-7.21-21.078-1.86-6.33 5.348-7.158 14.853-1.847 21.229 45.923 55.135 75.597 142.74 75.597 223.181 0 46.358-9.895 84.943-29.41 114.835h-29.622l13.162-9.437c6.732-4.825 8.303-14.234 3.51-21.012-4.788-6.778-14.127-8.365-20.863-3.536l-47.398 33.985h-88.995c8.969-45.752-.373-96.865-27.476-149.15-19.402-37.417-46.958-73.622-78.654-104.295 32.647-83.163 86.676-136.364 139.32-136.364 15.9 0 31.923 4.659 47.62 13.852 7.143 4.179 16.302 1.738 20.455-5.454 4.152-7.195 1.728-16.418-5.416-20.6-20.325-11.9-41.407-17.933-62.658-17.933-63.69 0-124.933 55.115-163.012 145.259-12.97-10.748-26.412-20.52-40.105-29.037-64.452-40.087-125.483-48.737-171.845-24.362-42.764 22.506-70.156 72.412-77.133 140.524-.85 8.278 5.127 15.681 13.346 16.533 8.238.868 15.571-5.165 16.416-13.441 5.914-57.72 27.657-99.239 61.222-116.907 81.716-42.964 216.673 55.78 273.917 166.172 25.46 49.117 33.295 94.537 23.382 135.204H455.867l-25.11-25.286a14.89 14.89 0 0 0-21.158 0c-5.844 5.886-5.844 15.424 0 21.309l3.947 3.976h-41.074c-16.665-38.145-27.62-81.948-31.018-124.44-.662-8.294-7.867-14.496-16.112-13.81-8.238.666-14.375 7.931-13.713 16.226 2.76 34.531 9.837 68.892 20.76 101.319-42.641-36.594-98.34-56.26-155.686-53.125a14.958 14.958 0 0 0-12.542 8.254c-22.5 44.867-28.825 95.51-19.493 143.47.087 1.454.373 2.85.84 4.162a223.748 223.748 0 0 0 12.651 40.126C94.119 661.23 37.252 699.243 3.166 755.87a15.16 15.16 0 0 0-.307 15.083c24.108 44.061 62.108 77.915 106.75 97.204a14.865 14.865 0 0 0 3.713 1.578c24.654 10.123 51.24 15.842 78.58 16.41 1.498.033 2.98.048 4.475.048 10.642 0 21.185-.81 31.571-2.332.978-.057 1.95-.185 2.894-.432 43.974-7.044 84.856-27.382 117.133-57.937.732.11 1.474.186 2.236.186h67.136c8.265 0 14.962-6.744 14.962-15.068 0-8.323-6.697-15.067-14.962-15.067H374.39a221.61 221.61 0 0 0 11.11-16.66c.106-.177.192-.362.29-.54.09-.164.196-.312.28-.481 34.848-69.527 30.904-152.918-10.042-218.68h67.442l40.733 41.021a14.873 14.873 0 0 0 10.581 4.412c3.828 0 7.659-1.471 10.581-4.412 5.843-5.887 5.843-15.426 0-21.31L485.79 559.18h40.61l55.544 55.939a14.87 14.87 0 0 0 10.58 4.412c3.829 0 7.66-1.47 10.582-4.412 5.843-5.887 5.843-15.425 0-21.31l-34.383-34.628h142.919c.017 0 .032.004.05.004.016 0 .032-.004.05-.004h66.25l-32.662 23.42c-6.733 4.826-8.304 14.234-3.511 21.013a14.903 14.903 0 0 0 12.2 6.33c3 0 6.03-.908 8.664-2.797l66.9-47.967h79.442l.026.001h31.192c6.294 0 12.22 2.468 16.658 6.922 4.45 4.494 6.9 10.463 6.9 16.803 0 9.071-.569 18.009-1.669 26.784l-109.856 79.775c-6.7 4.867-8.217 14.284-3.385 21.036a14.91 14.91 0 0 0 12.148 6.256 14.83 14.83 0 0 0 8.74-2.847l81.658-59.296c-16.315 45.722-47.761 84.23-88.234 109.379L696.353 595.96a14.892 14.892 0 0 0-21.159 0c-5.843 5.887-5.843 15.426 0 21.31L835.34 778.55c-21.687 9.33-45.229 15.099-69.896 16.59l-65.226-65.687a14.885 14.885 0 0 0-21.158.002c-5.843 5.884-5.843 15.423.002 21.308l44.464 44.776H577.055l-24.004-24.174a14.89 14.89 0 0 0-21.16 0c-5.842 5.886-5.842 15.425 0 21.31l2.845 2.864H479.68c-8.265 0-14.962 6.744-14.962 15.067 0 8.324 6.697 15.068 14.962 15.068h84.966l33.744 33.985a14.868 14.868 0 0 0 10.58 4.412c3.829 0 7.66-1.47 10.582-4.412 5.843-5.887 5.843-15.426 0-21.309l-12.586-12.676h145.67c37.72 0 73.437-8.776 105.261-24.395l12.568 12.656a14.87 14.87 0 0 0 10.58 4.413 14.87 14.87 0 0 0 10.581-4.413c5.843-5.886 5.843-15.424 0-21.309l-6.775-6.823c53.944-35.764 92.845-92.728 104.913-159.028l26.39-19.163c6.699-4.866 8.215-14.282 3.383-21.034zM348.786 572.17a191.89 191.89 0 0 1 4.81 7.865l-37.873 75.68-43.244-66.638 30.265-66.01c17.874 13.336 33.551 29.856 46.042 49.103zM299.339 685.55l-82.481 4.184a190.36 190.36 0 0 1-15.441-20.574c-9.838-15.162-17.346-31.468-22.516-48.38l77.58-1.276 42.858 66.046zM277.17 506.957l-24.004 52.354-47.709-73.521c25.228 2.256 49.586 9.549 71.713 21.167zm-96.77-4.7 56.73 87.427-64.872 1.067c-4.105-29.499-1.435-59.853 8.142-88.493zm-7.734 177.473a234.632 234.632 0 0 0 3.701 5.915 220.635 220.635 0 0 0 22.173 28.67 15.19 15.19 0 0 0 1.98 2.129 221.62 221.62 0 0 0 45.141 36.932l-78.717-1.629-37.112-62.512a188.912 188.912 0 0 1 42.834-9.505zm-70.489 21.645 29.467 49.638-87.23-1.806c16.074-19.772 35.742-35.975 57.763-47.832zm9.601 134.65a192.307 192.307 0 0 1-67.957-56.69l103.679 2.147-35.722 54.543zm106.31 18.758a188.54 188.54 0 0 1-25.578 1.236c-17.98-.376-35.584-3.334-52.362-8.575l42.72-65.231 78.323 1.622-43.103 70.948zm40.797-9.412 36.948-60.818 45.418.942c.933.086 1.871.148 2.806.223a192.162 192.162 0 0 1-85.172 59.653zM343 755.391c-34.716-3.425-67.719-16.39-95.435-37.04l70.728-3.588 26.385 40.662-1.678-.034zm26.813-16.319-35.172-54.2 34.91-69.764c13.51 39.937 13.735 83.65.262 123.964z"/><path stroke="null" fill="#253D4E" d="M872.708 612.41c-4.836-6.75-14.186-8.273-20.887-3.407l-52.722 38.285c-6.7 4.866-8.217 14.283-3.383 21.035a14.91 14.91 0 0 0 12.146 6.256c3.034 0 6.092-.927 8.74-2.848l52.722-38.287c6.7-4.866 8.217-14.281 3.384-21.035z"/></svg>